  0
SECTION
  2
HEADER
  9
$ACADVER
  1
AC1014
  9
$HANDSEED
  5
FFFF
  9
$MEASUREMENT
 70
     1
  0
ENDSEC
  0
SECTION
  2
TABLES
  0
TABLE
  2
VPORT
  5
8
330
0
100
AcDbSymbolTable
 70
     4
  0
VPORT
  5
2E
330
8
100
AcDbSymbolTableRecord
100
AcDbViewportTableRecord
  2
*ACTIVE
 70
     0
 10
0.0
 20
0.0
 11
1.0
 21
1.0
 12
210.0
 22
148.5
 13
0.0
 23
0.0
 14
10.0
 24
10.0
 15
10.0
 25
10.0
 16
0.0
 26
0.0
 36
1.0
 17
0.0
 27
0.0
 37
0.0
 40
341.0
 41
1.24
 42
50.0
 43
0.0
 44
0.0
 50
0.0
 51
0.0
 71
     0
 72
   100
 73
     1
 74
     3
 75
     0
 76
     0
 77
     0
 78
     0
  0
ENDTAB
  0
TABLE
  2
LTYPE
  5
5
330
0
100
AcDbSymbolTable
 70
     1
  0
LTYPE
  5
14
330
5
100
AcDbSymbolTableRecord
100
AcDbLinetypeTableRecord
  2
BYBLOCK
 70
     0
  3

 72
    65
 73
     0
 40
0.0
  0
LTYPE
  5
15
330
5
100
AcDbSymbolTableRecord
100
AcDbLinetypeTableRecord
  2
BYLAYER
 70
     0
  3

 72
    65
 73
     0
 40
0.0
  0
LTYPE
  5
16
330
5
100
AcDbSymbolTableRecord
100
AcDbLinetypeTableRecord
  2
CONTINUOUS
 70
     0
  3
Solid line
 72
    65
 73
     0
 40
0.0
  0
ENDTAB
  0
TABLE
  2
LAYER
  5
2
100
AcDbSymbolTable
 70
5
  0
LAYER
  5
50
100
AcDbSymbolTableRecord
100
AcDbLayerTableRecord
  2
0
 70
0
  6
CONTINUOUS
  0
LAYER
  5
51
100
AcDbSymbolTableRecord
100
AcDbLayerTableRecord
  2
mfos_vco_VI_panel_2
 70
0
  6
CONTINUOUS
  0
LAYER
  5
52
100
AcDbSymbolTableRecord
100
AcDbLayerTableRecord
  2
holes
 70
0
  6
CONTINUOUS
  0
LAYER
  5
53
100
AcDbSymbolTableRecord
100
AcDbLayerTableRecord
  2
text
 70
0
  6
CONTINUOUS
  0
LAYER
  5
54
100
AcDbSymbolTableRecord
100
AcDbLayerTableRecord
  2
overlay#1
 70
0
  6
CONTINUOUS
  0
ENDTAB
  0
TABLE
  2
STYLE
  5
3
330
0
100
AcDbSymbolTable
 70
     1
  0
STYLE
  5
11
330
3
100
AcDbSymbolTableRecord
100
AcDbTextStyleTableRecord
  2
STANDARD
 70
     0
 40
0.0
 41
1.0
 50
0.0
 71
     0
 42
2.5
  3
txt
  4

  0
ENDTAB
  0
TABLE
  2
VIEW
  5
6
330
0
100
AcDbSymbolTable
 70
     0
  0
ENDTAB
  0
TABLE
  2
UCS
  5
7
330
0
100
AcDbSymbolTable
 70
     0
  0
ENDTAB
  0
TABLE
  2
APPID
  5
9
330
0
100
AcDbSymbolTable
 70
     2
  0
APPID
  5
12
330
9
100
AcDbSymbolTableRecord
100
AcDbRegAppTableRecord
  2
ACAD
 70
     0
  0
ENDTAB
  0
TABLE
  2
DIMSTYLE
  5
A
330
0
100
AcDbSymbolTable
 70
     1
  0
DIMSTYLE
105
27
330
A
100
AcDbSymbolTableRecord
100
AcDbDimStyleTableRecord
  2
ISO-25
 70
     0
  3

  4

  5

  6

  7

 40
1.0
 41
2.5
 42
0.625
 43
3.75
 44
1.25
 45
0.0
 46
0.0
 47
0.0
 48
0.0
140
2.5
141
2.5
142
0.0
143
0.03937007874016
144
1.0
145
0.0
146
1.0
147
0.625
 71
     0
 72
     0
 73
     0
 74
     0
 75
     0
 76
     0
 77
     1
 78
     8
170
     0
171
     3
172
     1
173
     0
174
     0
175
     0
176
     0
177
     0
178
     0
270
     2
271
     2
272
     2
273
     2
274
     3
340
11
275
     0
280
     0
281
     0
282
     0
283
     0
284
     8
285
     0
286
     0
287
     3
288
     0
  0
ENDTAB
  0
TABLE
  2
BLOCK_RECORD
  5
1
330
0
100
AcDbSymbolTable
 70
     1
  0
BLOCK_RECORD
  5
1F
330
1
100
AcDbSymbolTableRecord
100
AcDbBlockTableRecord
  2
*MODEL_SPACE
  0
BLOCK_RECORD
  5
1B
330
1
100
AcDbSymbolTableRecord
100
AcDbBlockTableRecord
  2
*PAPER_SPACE
  0
ENDTAB
  0
ENDSEC
  0
SECTION
  2
BLOCKS
  0
BLOCK
  5
20
330
1F
100
AcDbEntity
  8
0
100
AcDbBlockBegin
  2
*MODEL_SPACE
 70
     0
 10
0.0
 20
0.0
 30
0.0
  3
*MODEL_SPACE
  1

  0
ENDBLK
  5
21
330
1F
100
AcDbEntity
  8
0
100
AcDbBlockEnd
  0
BLOCK
  5
1C
330
1B
100
AcDbEntity
 67
     1
  8
0
100
AcDbBlockBegin
  2
*PAPER_SPACE
  1

  0
ENDBLK
  5
1D
330
1B
100
AcDbEntity
 67
     1
  8
0
100
AcDbBlockEnd
  0
ENDSEC
  0
SECTION
  2
ENTITIES
  0
LINE
  5
100
100
AcDbEntity
  8
text
 62
5
100
AcDbLine
 10
0.072268
 20
10.767032
 30
0.0
 11
8.072621
 21
10.767032
 31
0.0
  0
LINE
  5
101
100
AcDbEntity
  8
text
 62
5
100
AcDbLine
 10
8.072621
 20
10.767032
 30
0.0
 11
8.072621
 21
0.247634
 31
0.0
  0
LINE
  5
102
100
AcDbEntity
  8
text
 62
5
100
AcDbLine
 10
8.072621
 20
0.247634
 30
0.0
 11
0.072268
 21
0.247634
 31
0.0
  0
LINE
  5
103
100
AcDbEntity
  8
text
 62
5
100
AcDbLine
 10
0.072268
 20
0.247634
 30
0.0
 11
0.072268
 21
10.767032
 31
0.0
  0
LINE
  5
104
100
AcDbEntity
  8
text
 62
1
100
AcDbLine
 10
1.446968
 20
5.546038
 30
0.0
 11
1.062991
 21
5.546038
 31
0.0
  0
LINE
  5
105
100
AcDbEntity
  8
text
 62
1
100
AcDbLine
 10
1.062991
 20
5.546038
 30
0.0
 11
1.062991
 21
10.601993
 31
0.0
  0
LINE
  5
106
100
AcDbEntity
  8
text
 62
1
100
AcDbLine
 10
1.062991
 20
10.601993
 30
0.0
 11
2.126268
 21
10.601993
 31
0.0
  0
LINE
  5
107
100
AcDbEntity
  8
text
 62
1
100
AcDbLine
 10
2.126268
 20
10.601993
 30
0.0
 11
2.126268
 21
5.546038
 31
0.0
  0
LINE
  5
108
100
AcDbEntity
  8
text
 62
1
100
AcDbLine
 10
2.126268
 20
5.546038
 30
0.0
 11
1.062991
 21
5.546038
 31
0.0
  0
LINE
  5
109
100
AcDbEntity
  8
text
 62
1
100
AcDbLine
 10
1.993281
 20
10.477043
 30
0.0
 11
1.993281
 21
10.477043
 31
0.0
  0
SPLINE
  5
10a
100
AcDbEntity
  8
text
 62
1
100
AcDbSpline
 70
0
 71
3
 72
19
 73
15
 74
13
 40
0.000000
 40
0.000000
 40
0.000000
 40
0.000000
 40
0.004968
 40
0.010009
 40
0.015421
 40
0.020828
 40
0.025852
 40
0.030816
 40
0.035784
 40
0.040812
 40
0.046220
 40
0.051633
 40
0.056679
 40
0.061650
 40
0.061650
 40
0.061650
 40
0.061650
 10
1.993281
 20
10.477043
 30
0.0
 10
1.992981
 20
10.475368
 30
0.0
 10
1.992378
 20
10.471993
 30
0.0
 10
1.988165
 20
10.468451
 30
0.0
 10
1.982877
 20
10.467179
 30
0.0
 10
1.977525
 20
10.468446
 30
0.0
 10
1.973515
 20
10.472000
 30
0.0
 10
1.971979
 20
10.477044
 30
0.0
 10
1.973516
 20
10.482089
 30
0.0
 10
1.977523
 20
10.485649
 30
0.0
 10
1.982877
 20
10.486922
 30
0.0
 10
1.988167
 20
10.485644
 30
0.0
 10
1.992378
 20
10.482096
 30
0.0
 10
1.992981
 20
10.478719
 30
0.0
 10
1.993281
 20
10.477043
 30
0.0
 11
1.993281
 21
10.477043
 31
0.0
 11
1.991858
 21
10.472283
 31
0.0
 11
1.988120
 21
10.468900
 31
0.0
 11
1.982864
 21
10.467612
 31
0.0
 11
1.977612
 21
10.468900
 31
0.0
 11
1.973898
 21
10.472283
 31
0.0
 11
1.972489
 21
10.477043
 31
0.0
 11
1.973898
 21
10.481806
 31
0.0
 11
1.977612
 21
10.485196
 31
0.0
 11
1.982864
 21
10.486487
 31
0.0
 11
1.988120
 21
10.485196
 31
0.0
 11
1.991858
 21
10.481806
 31
0.0
 11
1.993281
 21
10.477043
 31
0.0
  0
LINE
  5
10b
100
AcDbEntity
  8
text
 62
1
100
AcDbLine
 10
1.304831
 20
5.665662
 30
0.0
 11
1.304831
 21
5.665662
 31
0.0
  0
SPLINE
  5
10c
100
AcDbEntity
  8
text
 62
1
100
AcDbSpline
 70
0
 71
3
 72
19
 73
15
 74
13
 40
0.000000
 40
0.000000
 40
0.000000
 40
0.000000
 40
0.003531
 40
0.007403
 40
0.011798
 40
0.016178
 40
0.020063
 40
0.023598
 40
0.027124
 40
0.031006
 40
0.035387
 40
0.039781
 40
0.043651
 40
0.047173
 40
0.047173
 40
0.047173
 40
0.047173
 10
1.304831
 20
5.665662
 30
0.0
 10
1.304568
 20
5.664476
 30
0.0
 10
1.304017
 20
5.661989
 30
0.0
 10
1.300526
 20
5.659595
 30
0.0
 10
1.296333
 20
5.658740
 30
0.0
 10
1.292069
 20
5.659602
 30
0.0
 10
1.288755
 20
5.661985
 30
0.0
 10
1.287329
 20
5.665660
 30
0.0
 10
1.288756
 20
5.669332
 30
0.0
 10
1.292070
 20
5.671709
 30
0.0
 10
1.296333
 20
5.672571
 30
0.0
 10
1.300525
 20
5.671716
 30
0.0
 10
1.304015
 20
5.669328
 30
0.0
 10
1.304567
 20
5.666845
 30
0.0
 10
1.304831
 20
5.665662
 30
0.0
 11
1.304831
 21
5.665662
 31
0.0
 11
1.303670
 21
5.662328
 31
0.0
 11
1.300617
 21
5.659946
 31
0.0
 11
1.296317
 21
5.659037
 31
0.0
 11
1.292032
 21
5.659946
 31
0.0
 11
1.288963
 21
5.662328
 31
0.0
 11
1.287789
 21
5.665662
 31
0.0
 11
1.288963
 21
5.668987
 31
0.0
 11
1.292032
 21
5.671365
 31
0.0
 11
1.296317
 21
5.672273
 31
0.0
 11
1.300617
 21
5.671365
 31
0.0
 11
1.303670
 21
5.668987
 31
0.0
 11
1.304831
 21
5.665662
 31
0.0
  0
LINE
  5
10d
100
AcDbEntity
  8
text
 62
1
100
AcDbLine
 10
1.410374
 20
6.380230
 30
0.0
 11
1.503304
 21
6.380230
 31
0.0
  0
LINE
  5
10e
100
AcDbEntity
  8
text
 62
1
100
AcDbLine
 10
1.456860
 20
6.333744
 30
0.0
 11
1.456860
 21
6.426730
 31
0.0
  0
LINE
  5
10f
100
AcDbEntity
  8
text
 62
1
100
AcDbLine
 10
-2.662406
 20
9.997347
 30
0.0
 11
-2.837754
 21
9.681639
 31
0.0
  0
LINE
  5
110
100
AcDbEntity
  8
text
 62
1
100
AcDbLine
 10
-2.662406
 20
9.997347
 30
0.0
 11
-2.985101
 21
9.836000
 31
0.0
  0
LINE
  5
111
100
AcDbEntity
  8
text
 62
1
100
AcDbLine
 10
-2.662406
 20
9.997347
 30
0.0
 11
-3.020156
 21
10.039444
 31
0.0
  0
LINE
  5
112
100
AcDbEntity
  8
text
 62
1
100
AcDbLine
 10
-2.662406
 20
9.997347
 30
0.0
 11
-2.935948
 21
10.228847
 31
0.0
  0
LINE
  5
113
100
AcDbEntity
  8
text
 62
1
100
AcDbLine
 10
-2.662406
 20
9.997347
 30
0.0
 11
-2.760601
 21
10.341097
 31
0.0
  0
LINE
  5
114
100
AcDbEntity
  8
text
 62
1
100
AcDbLine
 10
-2.662406
 20
9.997347
 30
0.0
 11
-2.564156
 21
10.341097
 31
0.0
  0
LINE
  5
115
100
AcDbEntity
  8
text
 62
1
100
AcDbLine
 10
-2.662406
 20
9.997347
 30
0.0
 11
-2.388809
 21
10.228847
 31
0.0
  0
LINE
  5
116
100
AcDbEntity
  8
text
 62
1
100
AcDbLine
 10
-2.662406
 20
9.997347
 30
0.0
 11
-2.304601
 21
10.039444
 31
0.0
  0
LINE
  5
117
100
AcDbEntity
  8
text
 62
1
100
AcDbLine
 10
-2.662406
 20
9.997347
 30
0.0
 11
-2.339698
 21
9.836000
 31
0.0
  0
LINE
  5
118
100
AcDbEntity
  8
text
 62
1
100
AcDbLine
 10
-2.662406
 20
9.997347
 30
0.0
 11
-2.480004
 21
9.681639
 31
0.0
  0
LINE
  5
119
100
AcDbEntity
  8
text
 62
1
100
AcDbLine
 10
-2.662406
 20
9.997347
 30
0.0
 11
-2.816698
 21
9.723750
 31
0.0
  0
LINE
  5
11a
100
AcDbEntity
  8
text
 62
1
100
AcDbLine
 10
-2.662406
 20
9.997347
 30
0.0
 11
-2.858795
 21
9.744792
 31
0.0
  0
LINE
  5
11b
100
AcDbEntity
  8
text
 62
1
100
AcDbLine
 10
-2.662406
 20
9.997347
 30
0.0
 11
-2.893906
 21
9.779847
 31
0.0
  0
LINE
  5
11c
100
AcDbEntity
  8
text
 62
1
100
AcDbLine
 10
-2.662406
 20
9.997347
 30
0.0
 11
-2.921948
 21
9.814944
 31
0.0
  0
LINE
  5
11d
100
AcDbEntity
  8
text
 62
1
100
AcDbLine
 10
-2.662406
 20
9.997347
 30
0.0
 11
-2.950004
 21
9.857042
 31
0.0
  0
LINE
  5
11e
100
AcDbEntity
  8
text
 62
1
100
AcDbLine
 10
-2.662406
 20
9.997347
 30
0.0
 11
-2.964059
 21
9.899153
 31
0.0
  0
LINE
  5
11f
100
AcDbEntity
  8
text
 62
1
100
AcDbLine
 10
-2.662406
 20
9.997347
 30
0.0
 11
-2.978045
 21
9.948250
 31
0.0
  0
LINE
  5
120
100
AcDbEntity
  8
text
 62
1
100
AcDbLine
 10
-2.662406
 20
9.997347
 30
0.0
 11
-2.978045
 21
9.990292
 31
0.0
  0
LINE
  5
121
100
AcDbEntity
  8
text
 62
1
100
AcDbLine
 10
-2.662406
 20
9.997347
 30
0.0
 11
-2.978045
 21
10.032389
 31
0.0
  0
LINE
  5
122
100
AcDbEntity
  8
text
 62
1
100
AcDbLine
 10
-2.662406
 20
9.997347
 30
0.0
 11
-2.971045
 21
10.074500
 31
0.0
  0
LINE
  5
123
100
AcDbEntity
  8
text
 62
1
100
AcDbLine
 10
-2.662406
 20
9.997347
 30
0.0
 11
-2.957004
 21
10.123597
 31
0.0
  0
LINE
  5
124
100
AcDbEntity
  8
text
 62
1
100
AcDbLine
 10
-2.662406
 20
9.997347
 30
0.0
 11
-2.935948
 21
10.165694
 31
0.0
  0
LINE
  5
125
100
AcDbEntity
  8
text
 62
1
100
AcDbLine
 10
-2.662406
 20
9.997347
 30
0.0
 11
-2.907906
 21
10.200792
 31
0.0
  0
LINE
  5
126
100
AcDbEntity
  8
text
 62
1
100
AcDbLine
 10
-2.662406
 20
9.997347
 30
0.0
 11
-2.872851
 21
10.235847
 31
0.0
  0
LINE
  5
127
100
AcDbEntity
  8
text
 62
1
100
AcDbLine
 10
-2.662406
 20
9.997347
 30
0.0
 11
-2.837754
 21
10.263889
 31
0.0
  0
LINE
  5
128
100
AcDbEntity
  8
text
 62
1
100
AcDbLine
 10
-2.662406
 20
9.997347
 30
0.0
 11
-2.795656
 21
10.284944
 31
0.0
  0
LINE
  5
129
100
AcDbEntity
  8
text
 62
1
100
AcDbLine
 10
-2.662406
 20
9.997347
 30
0.0
 11
-2.753601
 21
10.306000
 31
0.0
  0
LINE
  5
12a
100
AcDbEntity
  8
text
 62
1
100
AcDbLine
 10
-2.662406
 20
9.997347
 30
0.0
 11
-2.704448
 21
10.313000
 31
0.0
  0
LINE
  5
12b
100
AcDbEntity
  8
text
 62
1
100
AcDbLine
 10
-2.662406
 20
9.997347
 30
0.0
 11
-2.662406
 21
10.320042
 31
0.0
  0
LINE
  5
12c
100
AcDbEntity
  8
text
 62
1
100
AcDbLine
 10
-2.662406
 20
9.997347
 30
0.0
 11
-2.620309
 21
10.313000
 31
0.0
  0
LINE
  5
12d
100
AcDbEntity
  8
text
 62
1
100
AcDbLine
 10
-2.662406
 20
9.997347
 30
0.0
 11
-2.571198
 21
10.306000
 31
0.0
  0
LINE
  5
12e
100
AcDbEntity
  8
text
 62
1
100
AcDbLine
 10
-2.662406
 20
9.997347
 30
0.0
 11
-2.529101
 21
10.284944
 31
0.0
  0
LINE
  5
12f
100
AcDbEntity
  8
text
 62
1
100
AcDbLine
 10
-2.662406
 20
9.997347
 30
0.0
 11
-2.487004
 21
10.263889
 31
0.0
  0
LINE
  5
130
100
AcDbEntity
  8
text
 62
1
100
AcDbLine
 10
-2.662406
 20
9.997347
 30
0.0
 11
-2.451948
 21
10.235847
 31
0.0
  0
LINE
  5
131
100
AcDbEntity
  8
text
 62
1
100
AcDbLine
 10
-2.662406
 20
9.997347
 30
0.0
 11
-2.416851
 21
10.200792
 31
0.0
  0
LINE
  5
132
100
AcDbEntity
  8
text
 62
1
100
AcDbLine
 10
-2.662406
 20
9.997347
 30
0.0
 11
-2.388809
 21
10.165694
 31
0.0
  0
LINE
  5
133
100
AcDbEntity
  8
text
 62
1
100
AcDbLine
 10
-2.662406
 20
9.997347
 30
0.0
 11
-2.367754
 21
10.123597
 31
0.0
  0
LINE
  5
134
100
AcDbEntity
  8
text
 62
1
100
AcDbLine
 10
-2.662406
 20
9.997347
 30
0.0
 11
-2.353698
 21
10.074500
 31
0.0
  0
LINE
  5
135
100
AcDbEntity
  8
text
 62
1
100
AcDbLine
 10
-2.662406
 20
9.997347
 30
0.0
 11
-2.346698
 21
10.032389
 31
0.0
  0
LINE
  5
136
100
AcDbEntity
  8
text
 62
1
100
AcDbLine
 10
-2.662406
 20
9.997347
 30
0.0
 11
-2.346698
 21
9.990292
 31
0.0
  0
LINE
  5
137
100
AcDbEntity
  8
text
 62
1
100
AcDbLine
 10
-2.662406
 20
9.997347
 30
0.0
 11
-2.346698
 21
9.948250
 31
0.0
  0
LINE
  5
138
100
AcDbEntity
  8
text
 62
1
100
AcDbLine
 10
-2.662406
 20
9.997347
 30
0.0
 11
-2.360754
 21
9.899153
 31
0.0
  0
LINE
  5
139
100
AcDbEntity
  8
text
 62
1
100
AcDbLine
 10
-2.662406
 20
9.997347
 30
0.0
 11
-2.374754
 21
9.857042
 31
0.0
  0
LINE
  5
13a
100
AcDbEntity
  8
text
 62
1
100
AcDbLine
 10
-2.662406
 20
9.997347
 30
0.0
 11
-2.402795
 21
9.814944
 31
0.0
  0
LINE
  5
13b
100
AcDbEntity
  8
text
 62
1
100
AcDbLine
 10
-2.662406
 20
9.997347
 30
0.0
 11
-2.430906
 21
9.779847
 31
0.0
  0
LINE
  5
13c
100
AcDbEntity
  8
text
 62
1
100
AcDbLine
 10
-2.662406
 20
9.997347
 30
0.0
 11
-2.465948
 21
9.744792
 31
0.0
  0
LINE
  5
13d
100
AcDbEntity
  8
text
 62
1
100
AcDbLine
 10
-2.662406
 20
9.997347
 30
0.0
 11
-2.501059
 21
9.723750
 31
0.0
  0
SPLINE
  5
13e
100
AcDbEntity
  8
text
 62
1
100
AcDbSpline
 70
0
 71
3
 72
19
 73
15
 74
13
 40
0.000000
 40
0.000000
 40
0.000000
 40
0.000000
 40
0.062845
 40
0.120074
 40
0.182949
 40
0.245779
 40
0.302976
 40
0.365816
 40
0.428650
 40
0.485850
 40
0.548681
 40
0.611557
 40
0.668788
 40
0.731627
 40
0.731627
 40
0.731627
 40
0.731627
 10
1.340596
 20
6.380230
 30
0.0
 10
1.343084
 20
6.401584
 30
0.0
 10
1.347839
 20
6.442384
 30
0.0
 10
1.394985
 20
6.488160
 30
0.0
 10
1.456760
 20
6.500772
 30
0.0
 10
1.519015
 20
6.488160
 30
0.0
 10
1.564740
 20
6.442369
 30
0.0
 10
1.577344
 20
6.380232
 30
0.0
 10
1.564738
 20
6.318095
 30
0.0
 10
1.519016
 20
6.272304
 30
0.0
 10
1.456760
 20
6.259686
 30
0.0
 10
1.394984
 20
6.272304
 30
0.0
 10
1.347841
 20
6.318080
 30
0.0
 10
1.343085
 20
6.358878
 30
0.0
 10
1.340596
 20
6.380230
 30
0.0
 11
1.340596
 21
6.380230
 31
0.0
 11
1.355235
 21
6.441346
 31
0.0
 11
1.395711
 21
6.481804
 31
0.0
 11
1.456860
 21
6.496438
 31
0.0
 11
1.517961
 21
6.481804
 31
0.0
 11
1.558393
 21
6.441346
 31
0.0
 11
1.573012
 21
6.380230
 31
0.0
 11
1.558393
 21
6.319120
 31
0.0
 11
1.517961
 21
6.278659
 31
0.0
 11
1.456860
 21
6.264022
 31
0.0
 11
1.395711
 21
6.278659
 31
0.0
 11
1.355235
 21
6.319120
 31
0.0
 11
1.340596
 21
6.380230
 31
0.0
  0
LINE
  5
13f
100
AcDbEntity
  8
text
 62
1
100
AcDbLine
 10
-2.704448
 20
9.997347
 30
0.0
 11
-2.620309
 21
9.997347
 31
0.0
  0
LINE
  5
140
100
AcDbEntity
  8
text
 62
1
100
AcDbLine
 10
-2.662406
 20
9.955250
 30
0.0
 11
-2.662406
 21
10.039444
 31
0.0
  0
SPLINE
  5
141
100
AcDbEntity
  8
text
 62
1
100
AcDbSpline
 70
0
 71
3
 72
19
 73
15
 74
13
 40
0.000000
 40
0.000000
 40
0.000000
 40
0.000000
 40
0.056881
 40
0.108680
 40
0.165561
 40
0.222480
 40
0.274289
 40
0.331171
 40
0.388090
 40
0.439909
 40
0.496829
 40
0.553710
 40
0.605520
 40
0.662438
 40
0.662438
 40
0.662438
 40
0.662438
 10
-2.767601
 20
9.997347
 30
0.0
 10
-2.765347
 20
10.016674
 30
0.0
 10
-2.761041
 20
10.053601
 30
0.0
 10
-2.718390
 20
10.095037
 30
0.0
 10
-2.662469
 20
10.106468
 30
0.0
 10
-2.606105
 20
10.095043
 30
0.0
 10
-2.564667
 20
10.053606
 30
0.0
 10
-2.553227
 20
9.997335
 30
0.0
 10
-2.564662
 20
9.941058
 30
0.0
 10
-2.606099
 20
9.899597
 30
0.0
 10
-2.662469
 20
9.888170
 30
0.0
 10
-2.718396
 20
9.899603
 30
0.0
 10
-2.761047
 20
9.941064
 30
0.0
 10
-2.765349
 20
9.978007
 30
0.0
 10
-2.767601
 20
9.997347
 30
0.0
 11
-2.767601
 21
9.997347
 31
0.0
 11
-2.754350
 21
10.052663
 31
0.0
 11
-2.717722
 21
10.089291
 31
0.0
 11
-2.662406
 21
10.102542
 31
0.0
 11
-2.607051
 21
10.089291
 31
0.0
 11
-2.570409
 21
10.052663
 31
0.0
 11
-2.557156
 21
9.997347
 31
0.0
 11
-2.570409
 21
9.941992
 31
0.0
 11
-2.607051
 21
9.905350
 31
0.0
 11
-2.662406
 21
9.892097
 31
0.0
 11
-2.717722
 21
9.905350
 31
0.0
 11
-2.754350
 21
9.941992
 31
0.0
 11
-2.767601
 21
9.997347
 31
0.0
  0
LINE
  5
142
100
AcDbEntity
  8
text
 62
7
100
AcDbLine
 10
-2.654045
 20
9.995181
 30
0.0
 11
-2.654045
 21
9.995181
 31
0.0
  0
LINE
  5
143
100
AcDbEntity
  8
text
 62
1
100
AcDbLine
 10
1.729035
 20
7.085120
 30
0.0
 11
1.553687
 21
6.769412
 31
0.0
  0
LINE
  5
144
100
AcDbEntity
  8
text
 62
1
100
AcDbLine
 10
1.729035
 20
7.085120
 30
0.0
 11
1.406340
 21
6.923773
 31
0.0
  0
LINE
  5
145
100
AcDbEntity
  8
text
 62
1
100
AcDbLine
 10
1.729035
 20
7.085120
 30
0.0
 11
1.371285
 21
7.127217
 31
0.0
  0
LINE
  5
146
100
AcDbEntity
  8
text
 62
1
100
AcDbLine
 10
1.729035
 20
7.085120
 30
0.0
 11
1.455493
 21
7.316620
 31
0.0
  0
LINE
  5
147
100
AcDbEntity
  8
text
 62
1
100
AcDbLine
 10
1.729035
 20
7.085120
 30
0.0
 11
1.630840
 21
7.428870
 31
0.0
  0
LINE
  5
148
100
AcDbEntity
  8
text
 62
1
100
AcDbLine
 10
1.729035
 20
7.085120
 30
0.0
 11
1.827285
 21
7.428870
 31
0.0
  0
LINE
  5
149
100
AcDbEntity
  8
text
 62
1
100
AcDbLine
 10
1.729035
 20
7.085120
 30
0.0
 11
2.002632
 21
7.316620
 31
0.0
  0
LINE
  5
14a
100
AcDbEntity
  8
text
 62
1
100
AcDbLine
 10
1.729035
 20
7.085120
 30
0.0
 11
2.086840
 21
7.127217
 31
0.0
  0
LINE
  5
14b
100
AcDbEntity
  8
text
 62
1
100
AcDbLine
 10
1.729035
 20
7.085120
 30
0.0
 11
2.051743
 21
6.923773
 31
0.0
  0
LINE
  5
14c
100
AcDbEntity
  8
text
 62
1
100
AcDbLine
 10
1.729035
 20
7.085120
 30
0.0
 11
1.911437
 21
6.769412
 31
0.0
  0
LINE
  5
14d
100
AcDbEntity
  8
text
 62
1
100
AcDbLine
 10
1.729035
 20
7.085120
 30
0.0
 11
1.574743
 21
6.811523
 31
0.0
  0
LINE
  5
14e
100
AcDbEntity
  8
text
 62
1
100
AcDbLine
 10
1.729035
 20
7.085120
 30
0.0
 11
1.532646
 21
6.832565
 31
0.0
  0
LINE
  5
14f
100
AcDbEntity
  8
text
 62
1
100
AcDbLine
 10
1.729035
 20
7.085120
 30
0.0
 11
1.497535
 21
6.867620
 31
0.0
  0
LINE
  5
150
100
AcDbEntity
  8
text
 62
1
100
AcDbLine
 10
1.729035
 20
7.085120
 30
0.0
 11
1.469493
 21
6.902717
 31
0.0
  0
LINE
  5
151
100
AcDbEntity
  8
text
 62
1
100
AcDbLine
 10
1.729035
 20
7.085120
 30
0.0
 11
1.441437
 21
6.944815
 31
0.0
  0
LINE
  5
152
100
AcDbEntity
  8
text
 62
1
100
AcDbLine
 10
1.729035
 20
7.085120
 30
0.0
 11
1.427382
 21
6.986926
 31
0.0
  0
LINE
  5
153
100
AcDbEntity
  8
text
 62
1
100
AcDbLine
 10
1.729035
 20
7.085120
 30
0.0
 11
1.413396
 21
7.036023
 31
0.0
  0
LINE
  5
154
100
AcDbEntity
  8
text
 62
1
100
AcDbLine
 10
1.729035
 20
7.085120
 30
0.0
 11
1.413396
 21
7.078065
 31
0.0
  0
LINE
  5
155
100
AcDbEntity
  8
text
 62
1
100
AcDbLine
 10
1.729035
 20
7.085120
 30
0.0
 11
1.413396
 21
7.120162
 31
0.0
  0
LINE
  5
156
100
AcDbEntity
  8
text
 62
1
100
AcDbLine
 10
1.729035
 20
7.085120
 30
0.0
 11
1.420396
 21
7.162273
 31
0.0
  0
LINE
  5
157
100
AcDbEntity
  8
text
 62
1
100
AcDbLine
 10
1.729035
 20
7.085120
 30
0.0
 11
1.434437
 21
7.211370
 31
0.0
  0
LINE
  5
158
100
AcDbEntity
  8
text
 62
1
100
AcDbLine
 10
1.729035
 20
7.085120
 30
0.0
 11
1.455493
 21
7.253467
 31
0.0
  0
LINE
  5
159
100
AcDbEntity
  8
text
 62
1
100
AcDbLine
 10
1.729035
 20
7.085120
 30
0.0
 11
1.483535
 21
7.288565
 31
0.0
  0
LINE
  5
15a
100
AcDbEntity
  8
text
 62
1
100
AcDbLine
 10
1.729035
 20
7.085120
 30
0.0
 11
1.518590
 21
7.323620
 31
0.0
  0
LINE
  5
15b
100
AcDbEntity
  8
text
 62
1
100
AcDbLine
 10
1.729035
 20
7.085120
 30
0.0
 11
1.553687
 21
7.351662
 31
0.0
  0
LINE
  5
15c
100
AcDbEntity
  8
text
 62
1
100
AcDbLine
 10
1.729035
 20
7.085120
 30
0.0
 11
1.595785
 21
7.372717
 31
0.0
  0
LINE
  5
15d
100
AcDbEntity
  8
text
 62
1
100
AcDbLine
 10
1.729035
 20
7.085120
 30
0.0
 11
1.637840
 21
7.393773
 31
0.0
  0
LINE
  5
15e
100
AcDbEntity
  8
text
 62
1
100
AcDbLine
 10
1.729035
 20
7.085120
 30
0.0
 11
1.686993
 21
7.400773
 31
0.0
  0
LINE
  5
15f
100
AcDbEntity
  8
text
 62
1
100
AcDbLine
 10
1.729035
 20
7.085120
 30
0.0
 11
1.729035
 21
7.407815
 31
0.0
  0
LINE
  5
160
100
AcDbEntity
  8
text
 62
1
100
AcDbLine
 10
1.729035
 20
7.085120
 30
0.0
 11
1.771132
 21
7.400773
 31
0.0
  0
LINE
  5
161
100
AcDbEntity
  8
text
 62
1
100
AcDbLine
 10
1.729035
 20
7.085120
 30
0.0
 11
1.820243
 21
7.393773
 31
0.0
  0
LINE
  5
162
100
AcDbEntity
  8
text
 62
1
100
AcDbLine
 10
1.729035
 20
7.085120
 30
0.0
 11
1.862340
 21
7.372717
 31
0.0
  0
LINE
  5
163
100
AcDbEntity
  8
text
 62
1
100
AcDbLine
 10
1.729035
 20
7.085120
 30
0.0
 11
1.904437
 21
7.351662
 31
0.0
  0
LINE
  5
164
100
AcDbEntity
  8
text
 62
1
100
AcDbLine
 10
1.729035
 20
7.085120
 30
0.0
 11
1.939493
 21
7.323620
 31
0.0
  0
LINE
  5
165
100
AcDbEntity
  8
text
 62
1
100
AcDbLine
 10
1.729035
 20
7.085120
 30
0.0
 11
1.974590
 21
7.288565
 31
0.0
  0
LINE
  5
166
100
AcDbEntity
  8
text
 62
1
100
AcDbLine
 10
1.729035
 20
7.085120
 30
0.0
 11
2.002632
 21
7.253467
 31
0.0
  0
LINE
  5
167
100
AcDbEntity
  8
text
 62
1
100
AcDbLine
 10
1.729035
 20
7.085120
 30
0.0
 11
2.023687
 21
7.211370
 31
0.0
  0
LINE
  5
168
100
AcDbEntity
  8
text
 62
1
100
AcDbLine
 10
1.729035
 20
7.085120
 30
0.0
 11
2.037743
 21
7.162273
 31
0.0
  0
LINE
  5
169
100
AcDbEntity
  8
text
 62
1
100
AcDbLine
 10
1.729035
 20
7.085120
 30
0.0
 11
2.044743
 21
7.120162
 31
0.0
  0
LINE
  5
16a
100
AcDbEntity
  8
text
 62
1
100
AcDbLine
 10
1.729035
 20
7.085120
 30
0.0
 11
2.044743
 21
7.078065
 31
0.0
  0
LINE
  5
16b
100
AcDbEntity
  8
text
 62
1
100
AcDbLine
 10
1.729035
 20
7.085120
 30
0.0
 11
2.044743
 21
7.036023
 31
0.0
  0
LINE
  5
16c
100
AcDbEntity
  8
text
 62
1
100
AcDbLine
 10
1.729035
 20
7.085120
 30
0.0
 11
2.030687
 21
6.986926
 31
0.0
  0
LINE
  5
16d
100
AcDbEntity
  8
text
 62
1
100
AcDbLine
 10
1.729035
 20
7.085120
 30
0.0
 11
2.016687
 21
6.944815
 31
0.0
  0
LINE
  5
16e
100
AcDbEntity
  8
text
 62
1
100
AcDbLine
 10
1.729035
 20
7.085120
 30
0.0
 11
1.988646
 21
6.902717
 31
0.0
  0
LINE
  5
16f
100
AcDbEntity
  8
text
 62
1
100
AcDbLine
 10
1.729035
 20
7.085120
 30
0.0
 11
1.960535
 21
6.867620
 31
0.0
  0
LINE
  5
170
100
AcDbEntity
  8
text
 62
1
100
AcDbLine
 10
1.729035
 20
7.085120
 30
0.0
 11
1.925493
 21
6.832565
 31
0.0
  0
LINE
  5
171
100
AcDbEntity
  8
text
 62
1
100
AcDbLine
 10
1.729035
 20
7.085120
 30
0.0
 11
1.890382
 21
6.811523
 31
0.0
  0
SPLINE
  5
172
100
AcDbEntity
  8
text
 62
7
100
AcDbSpline
 70
0
 71
3
 72
19
 73
15
 74
13
 40
0.000000
 40
0.000000
 40
0.000000
 40
0.000000
 40
0.004461
 40
0.009016
 40
0.013919
 40
0.018821
 40
0.023376
 40
0.027838
 40
0.032333
 40
0.036893
 40
0.041795
 40
0.046697
 40
0.051257
 40
0.055753
 40
0.055753
 40
0.055753
 40
0.055753
 10
-2.654045
 20
9.995181
 30
0.0
 10
-2.654319
 20
9.993677
 30
0.0
 10
-2.654871
 20
9.990638
 30
0.0
 10
-2.658693
 20
9.987463
 30
0.0
 10
-2.663479
 20
9.986317
 30
0.0
 10
-2.668327
 20
9.987463
 30
0.0
 10
-2.671980
 20
9.990638
 30
0.0
 10
-2.673405
 20
9.995191
 30
0.0
 10
-2.671987
 20
9.999751
 30
0.0
 10
-2.668330
 20
10.002943
 30
0.0
 10
-2.663479
 20
10.004084
 30
0.0
 10
-2.658690
 20
10.002943
 30
0.0
 10
-2.654863
 20
9.999751
 30
0.0
 10
-2.654317
 20
9.996697
 30
0.0
 10
-2.654045
 20
9.995181
 30
0.0
 11
-2.654045
 21
9.995181
 31
0.0
 11
-2.655336
 21
9.990910
 31
0.0
 11
-2.658726
 21
9.987868
 31
0.0
 11
-2.663490
 21
9.986708
 31
0.0
 11
-2.668253
 21
9.987868
 31
0.0
 11
-2.671643
 21
9.990910
 31
0.0
 11
-2.672934
 21
9.995181
 31
0.0
 11
-2.671643
 21
9.999487
 31
0.0
 11
-2.668253
 21
10.002537
 31
0.0
 11
-2.663490
 21
10.003694
 31
0.0
 11
-2.658726
 21
10.002537
 31
0.0
 11
-2.655336
 21
9.999487
 31
0.0
 11
-2.654045
 21
9.995181
 31
0.0
  0
LINE
  5
173
100
AcDbEntity
  8
text
 62
1
100
AcDbLine
 10
1.686993
 20
7.085120
 30
0.0
 11
1.771132
 21
7.085120
 31
0.0
  0
LINE
  5
174
100
AcDbEntity
  8
text
 62
1
100
AcDbLine
 10
1.729035
 20
7.043023
 30
0.0
 11
1.729035
 21
7.127217
 31
0.0
  0
SPLINE
  5
175
100
AcDbEntity
  8
text
 62
1
100
AcDbSpline
 70
0
 71
3
 72
19
 73
15
 74
13
 40
0.000000
 40
0.000000
 40
0.000000
 40
0.000000
 40
0.056881
 40
0.108680
 40
0.165561
 40
0.222480
 40
0.274289
 40
0.331171
 40
0.388090
 40
0.439909
 40
0.496829
 40
0.553710
 40
0.605520
 40
0.662438
 40
0.662438
 40
0.662438
 40
0.662438
 10
1.623840
 20
7.085120
 30
0.0
 10
1.626094
 20
7.104447
 30
0.0
 10
1.630400
 20
7.141374
 30
0.0
 10
1.673051
 20
7.182810
 30
0.0
 10
1.728972
 20
7.194241
 30
0.0
 10
1.785336
 20
7.182816
 30
0.0
 10
1.826774
 20
7.141379
 30
0.0
 10
1.838214
 20
7.085107
 30
0.0
 10
1.826779
 20
7.028831
 30
0.0
 10
1.785342
 20
6.987370
 30
0.0
 10
1.728972
 20
6.975943
 30
0.0
 10
1.673045
 20
6.987375
 30
0.0
 10
1.630394
 20
7.028837
 30
0.0
 10
1.626092
 20
7.065780
 30
0.0
 10
1.623840
 20
7.085120
 30
0.0
 11
1.623840
 21
7.085120
 31
0.0
 11
1.637091
 21
7.140436
 31
0.0
 11
1.673719
 21
7.177064
 31
0.0
 11
1.729035
 21
7.190315
 31
0.0
 11
1.784389
 21
7.177064
 31
0.0
 11
1.821031
 21
7.140436
 31
0.0
 11
1.834285
 21
7.085120
 31
0.0
 11
1.821031
 21
7.029765
 31
0.0
 11
1.784389
 21
6.993123
 31
0.0
 11
1.729035
 21
6.979870
 31
0.0
 11
1.673719
 21
6.993123
 31
0.0
 11
1.637091
 21
7.029765
 31
0.0
 11
1.623840
 21
7.085120
 31
0.0
  0
LINE
  5
176
100
AcDbEntity
  8
text
 62
7
100
AcDbLine
 10
1.737396
 20
7.082953
 30
0.0
 11
1.737396
 21
7.082953
 31
0.0
  0
LINE
  5
177
100
AcDbEntity
  8
text
 62
1
100
AcDbLine
 10
1.733559
 20
9.638751
 30
0.0
 11
1.558212
 21
9.323043
 31
0.0
  0
LINE
  5
178
100
AcDbEntity
  8
text
 62
1
100
AcDbLine
 10
1.733559
 20
9.638751
 30
0.0
 11
1.410865
 21
9.477404
 31
0.0
  0
LINE
  5
179
100
AcDbEntity
  8
text
 62
1
100
AcDbLine
 10
1.733559
 20
9.638751
 30
0.0
 11
1.375809
 21
9.680848
 31
0.0
  0
LINE
  5
17a
100
AcDbEntity
  8
text
 62
1
100
AcDbLine
 10
1.733559
 20
9.638751
 30
0.0
 11
1.460018
 21
9.870251
 31
0.0
  0
LINE
  5
17b
100
AcDbEntity
  8
text
 62
1
100
AcDbLine
 10
1.733559
 20
9.638751
 30
0.0
 11
1.635365
 21
9.982501
 31
0.0
  0
LINE
  5
17c
100
AcDbEntity
  8
text
 62
1
100
AcDbLine
 10
1.733559
 20
9.638751
 30
0.0
 11
1.831809
 21
9.982501
 31
0.0
  0
LINE
  5
17d
100
AcDbEntity
  8
text
 62
1
100
AcDbLine
 10
1.733559
 20
9.638751
 30
0.0
 11
2.007157
 21
9.870251
 31
0.0
  0
LINE
  5
17e
100
AcDbEntity
  8
text
 62
1
100
AcDbLine
 10
1.733559
 20
9.638751
 30
0.0
 11
2.091365
 21
9.680848
 31
0.0
  0
LINE
  5
17f
100
AcDbEntity
  8
text
 62
1
100
AcDbLine
 10
1.733559
 20
9.638751
 30
0.0
 11
2.056268
 21
9.477404
 31
0.0
  0
LINE
  5
180
100
AcDbEntity
  8
text
 62
1
100
AcDbLine
 10
1.733559
 20
9.638751
 30
0.0
 11
1.915962
 21
9.323043
 31
0.0
  0
LINE
  5
181
100
AcDbEntity
  8
text
 62
1
100
AcDbLine
 10
1.733559
 20
9.638751
 30
0.0
 11
1.579268
 21
9.365154
 31
0.0
  0
LINE
  5
182
100
AcDbEntity
  8
text
 62
1
100
AcDbLine
 10
1.733559
 20
9.638751
 30
0.0
 11
1.537171
 21
9.386195
 31
0.0
  0
LINE
  5
183
100
AcDbEntity
  8
text
 62
1
100
AcDbLine
 10
1.733559
 20
9.638751
 30
0.0
 11
1.502059
 21
9.421251
 31
0.0
  0
LINE
  5
184
100
AcDbEntity
  8
text
 62
1
100
AcDbLine
 10
1.733559
 20
9.638751
 30
0.0
 11
1.474018
 21
9.456348
 31
0.0
  0
LINE
  5
185
100
AcDbEntity
  8
text
 62
1
100
AcDbLine
 10
1.733559
 20
9.638751
 30
0.0
 11
1.445962
 21
9.498445
 31
0.0
  0
LINE
  5
186
100
AcDbEntity
  8
text
 62
1
100
AcDbLine
 10
1.733559
 20
9.638751
 30
0.0
 11
1.431907
 21
9.540556
 31
0.0
  0
LINE
  5
187
100
AcDbEntity
  8
text
 62
1
100
AcDbLine
 10
1.733559
 20
9.638751
 30
0.0
 11
1.417921
 21
9.589654
 31
0.0
  0
LINE
  5
188
100
AcDbEntity
  8
text
 62
1
100
AcDbLine
 10
1.733559
 20
9.638751
 30
0.0
 11
1.417921
 21
9.631695
 31
0.0
  0
LINE
  5
189
100
AcDbEntity
  8
text
 62
1
100
AcDbLine
 10
1.733559
 20
9.638751
 30
0.0
 11
1.417921
 21
9.673793
 31
0.0
  0
LINE
  5
18a
100
AcDbEntity
  8
text
 62
1
100
AcDbLine
 10
1.733559
 20
9.638751
 30
0.0
 11
1.424921
 21
9.715904
 31
0.0
  0
LINE
  5
18b
100
AcDbEntity
  8
text
 62
1
100
AcDbLine
 10
1.733559
 20
9.638751
 30
0.0
 11
1.438962
 21
9.765001
 31
0.0
  0
LINE
  5
18c
100
AcDbEntity
  8
text
 62
1
100
AcDbLine
 10
1.733559
 20
9.638751
 30
0.0
 11
1.460018
 21
9.807098
 31
0.0
  0
LINE
  5
18d
100
AcDbEntity
  8
text
 62
1
100
AcDbLine
 10
1.733559
 20
9.638751
 30
0.0
 11
1.488059
 21
9.842195
 31
0.0
  0
LINE
  5
18e
100
AcDbEntity
  8
text
 62
1
100
AcDbLine
 10
1.733559
 20
9.638751
 30
0.0
 11
1.523115
 21
9.877251
 31
0.0
  0
LINE
  5
18f
100
AcDbEntity
  8
text
 62
1
100
AcDbLine
 10
1.733559
 20
9.638751
 30
0.0
 11
1.558212
 21
9.905293
 31
0.0
  0
LINE
  5
190
100
AcDbEntity
  8
text
 62
1
100
AcDbLine
 10
1.733559
 20
9.638751
 30
0.0
 11
1.600309
 21
9.926348
 31
0.0
  0
LINE
  5
191
100
AcDbEntity
  8
text
 62
1
100
AcDbLine
 10
1.733559
 20
9.638751
 30
0.0
 11
1.642365
 21
9.947404
 31
0.0
  0
LINE
  5
192
100
AcDbEntity
  8
text
 62
1
100
AcDbLine
 10
1.733559
 20
9.638751
 30
0.0
 11
1.691518
 21
9.954404
 31
0.0
  0
LINE
  5
193
100
AcDbEntity
  8
text
 62
1
100
AcDbLine
 10
1.733559
 20
9.638751
 30
0.0
 11
1.733559
 21
9.961445
 31
0.0
  0
LINE
  5
194
100
AcDbEntity
  8
text
 62
1
100
AcDbLine
 10
1.733559
 20
9.638751
 30
0.0
 11
1.775657
 21
9.954404
 31
0.0
  0
LINE
  5
195
100
AcDbEntity
  8
text
 62
1
100
AcDbLine
 10
1.733559
 20
9.638751
 30
0.0
 11
1.824768
 21
9.947404
 31
0.0
  0
LINE
  5
196
100
AcDbEntity
  8
text
 62
1
100
AcDbLine
 10
1.733559
 20
9.638751
 30
0.0
 11
1.866865
 21
9.926348
 31
0.0
  0
LINE
  5
197
100
AcDbEntity
  8
text
 62
1
100
AcDbLine
 10
1.733559
 20
9.638751
 30
0.0
 11
1.908962
 21
9.905293
 31
0.0
  0
LINE
  5
198
100
AcDbEntity
  8
text
 62
1
100
AcDbLine
 10
1.733559
 20
9.638751
 30
0.0
 11
1.944018
 21
9.877251
 31
0.0
  0
LINE
  5
199
100
AcDbEntity
  8
text
 62
1
100
AcDbLine
 10
1.733559
 20
9.638751
 30
0.0
 11
1.979115
 21
9.842195
 31
0.0
  0
LINE
  5
19a
100
AcDbEntity
  8
text
 62
1
100
AcDbLine
 10
1.733559
 20
9.638751
 30
0.0
 11
2.007157
 21
9.807098
 31
0.0
  0
LINE
  5
19b
100
AcDbEntity
  8
text
 62
1
100
AcDbLine
 10
1.733559
 20
9.638751
 30
0.0
 11
2.028212
 21
9.765001
 31
0.0
  0
LINE
  5
19c
100
AcDbEntity
  8
text
 62
1
100
AcDbLine
 10
1.733559
 20
9.638751
 30
0.0
 11
2.042268
 21
9.715904
 31
0.0
  0
LINE
  5
19d
100
AcDbEntity
  8
text
 62
1
100
AcDbLine
 10
1.733559
 20
9.638751
 30
0.0
 11
2.049268
 21
9.673793
 31
0.0
  0
LINE
  5
19e
100
AcDbEntity
  8
text
 62
1
100
AcDbLine
 10
1.733559
 20
9.638751
 30
0.0
 11
2.049268
 21
9.631695
 31
0.0
  0
LINE
  5
19f
100
AcDbEntity
  8
text
 62
1
100
AcDbLine
 10
1.733559
 20
9.638751
 30
0.0
 11
2.049268
 21
9.589654
 31
0.0
  0
LINE
  5
1a0
100
AcDbEntity
  8
text
 62
1
100
AcDbLine
 10
1.733559
 20
9.638751
 30
0.0
 11
2.035212
 21
9.540556
 31
0.0
  0
LINE
  5
1a1
100
AcDbEntity
  8
text
 62
1
100
AcDbLine
 10
1.733559
 20
9.638751
 30
0.0
 11
2.021212
 21
9.498445
 31
0.0
  0
LINE
  5
1a2
100
AcDbEntity
  8
text
 62
1
100
AcDbLine
 10
1.733559
 20
9.638751
 30
0.0
 11
1.993171
 21
9.456348
 31
0.0
  0
LINE
  5
1a3
100
AcDbEntity
  8
text
 62
1
100
AcDbLine
 10
1.733559
 20
9.638751
 30
0.0
 11
1.965059
 21
9.421251
 31
0.0
  0
LINE
  5
1a4
100
AcDbEntity
  8
text
 62
1
100
AcDbLine
 10
1.733559
 20
9.638751
 30
0.0
 11
1.930018
 21
9.386195
 31
0.0
  0
LINE
  5
1a5
100
AcDbEntity
  8
text
 62
1
100
AcDbLine
 10
1.733559
 20
9.638751
 30
0.0
 11
1.894907
 21
9.365154
 31
0.0
  0
SPLINE
  5
1a6
100
AcDbEntity
  8
text
 62
7
100
AcDbSpline
 70
0
 71
3
 72
19
 73
15
 74
13
 40
0.000000
 40
0.000000
 40
0.000000
 40
0.000000
 40
0.004461
 40
0.009016
 40
0.013919
 40
0.018821
 40
0.023376
 40
0.027838
 40
0.032333
 40
0.036893
 40
0.041795
 40
0.046697
 40
0.051257
 40
0.055753
 40
0.055753
 40
0.055753
 40
0.055753
 10
1.737396
 20
7.082953
 30
0.0
 10
1.737122
 20
7.081450
 30
0.0
 10
1.736570
 20
7.078411
 30
0.0
 10
1.732748
 20
7.075236
 30
0.0
 10
1.727962
 20
7.074090
 30
0.0
 10
1.723114
 20
7.075236
 30
0.0
 10
1.719461
 20
7.078411
 30
0.0
 10
1.718035
 20
7.082964
 30
0.0
 10
1.719454
 20
7.087524
 30
0.0
 10
1.723111
 20
7.090716
 30
0.0
 10
1.727962
 20
7.091857
 30
0.0
 10
1.732751
 20
7.090716
 30
0.0
 10
1.736578
 20
7.087524
 30
0.0
 10
1.737124
 20
7.084470
 30
0.0
 10
1.737396
 20
7.082953
 30
0.0
 11
1.737396
 21
7.082953
 31
0.0
 11
1.736105
 21
7.078683
 31
0.0
 11
1.732715
 21
7.075641
 31
0.0
 11
1.727951
 21
7.074481
 31
0.0
 11
1.723188
 21
7.075641
 31
0.0
 11
1.719798
 21
7.078683
 31
0.0
 11
1.718507
 21
7.082953
 31
0.0
 11
1.719798
 21
7.087260
 31
0.0
 11
1.723188
 21
7.090309
 31
0.0
 11
1.727951
 21
7.091467
 31
0.0
 11
1.732715
 21
7.090309
 31
0.0
 11
1.736105
 21
7.087260
 31
0.0
 11
1.737396
 21
7.082953
 31
0.0
  0
LINE
  5
1a7
100
AcDbEntity
  8
text
 62
1
100
AcDbLine
 10
1.691518
 20
9.638751
 30
0.0
 11
1.775657
 21
9.638751
 31
0.0
  0
LINE
  5
1a8
100
AcDbEntity
  8
text
 62
1
100
AcDbLine
 10
1.733559
 20
9.596654
 30
0.0
 11
1.733559
 21
9.680848
 31
0.0
  0
SPLINE
  5
1a9
100
AcDbEntity
  8
text
 62
1
100
AcDbSpline
 70
0
 71
3
 72
19
 73
15
 74
13
 40
0.000000
 40
0.000000
 40
0.000000
 40
0.000000
 40
0.056881
 40
0.108680
 40
0.165561
 40
0.222480
 40
0.274289
 40
0.331171
 40
0.388090
 40
0.439909
 40
0.496829
 40
0.553710
 40
0.605520
 40
0.662438
 40
0.662438
 40
0.662438
 40
0.662438
 10
1.628365
 20
9.638751
 30
0.0
 10
1.630619
 20
9.658078
 30
0.0
 10
1.634925
 20
9.695004
 30
0.0
 10
1.677576
 20
9.736441
 30
0.0
 10
1.733497
 20
9.747872
 30
0.0
 10
1.789861
 20
9.736447
 30
0.0
 10
1.831299
 20
9.695010
 30
0.0
 10
1.842739
 20
9.638738
 30
0.0
 10
1.831304
 20
9.582462
 30
0.0
 10
1.789867
 20
9.541001
 30
0.0
 10
1.733497
 20
9.529574
 30
0.0
 10
1.677570
 20
9.541006
 30
0.0
 10
1.634919
 20
9.582468
 30
0.0
 10
1.630617
 20
9.619411
 30
0.0
 10
1.628365
 20
9.638751
 30
0.0
 11
1.628365
 21
9.638751
 31
0.0
 11
1.641616
 21
9.694067
 31
0.0
 11
1.678244
 21
9.730694
 31
0.0
 11
1.733559
 21
9.743945
 31
0.0
 11
1.788914
 21
9.730694
 31
0.0
 11
1.825556
 21
9.694067
 31
0.0
 11
1.838809
 21
9.638751
 31
0.0
 11
1.825556
 21
9.583396
 31
0.0
 11
1.788914
 21
9.546754
 31
0.0
 11
1.733559
 21
9.533501
 31
0.0
 11
1.678244
 21
9.546754
 31
0.0
 11
1.641616
 21
9.583396
 31
0.0
 11
1.628365
 21
9.638751
 31
0.0
  0
LINE
  5
1aa
100
AcDbEntity
  8
text
 62
7
100
AcDbLine
 10
1.741921
 20
9.636584
 30
0.0
 11
1.741921
 21
9.636584
 31
0.0
  0
LINE
  5
1ab
100
AcDbEntity
  8
text
 62
1
100
AcDbLine
 10
1.733559
 20
8.782364
 30
0.0
 11
1.558212
 21
8.466656
 31
0.0
  0
LINE
  5
1ac
100
AcDbEntity
  8
text
 62
1
100
AcDbLine
 10
1.733559
 20
8.782364
 30
0.0
 11
1.410865
 21
8.621017
 31
0.0
  0
LINE
  5
1ad
100
AcDbEntity
  8
text
 62
1
100
AcDbLine
 10
1.733559
 20
8.782364
 30
0.0
 11
1.375809
 21
8.824461
 31
0.0
  0
LINE
  5
1ae
100
AcDbEntity
  8
text
 62
1
100
AcDbLine
 10
1.733559
 20
8.782364
 30
0.0
 11
1.460018
 21
9.013864
 31
0.0
  0
LINE
  5
1af
100
AcDbEntity
  8
text
 62
1
100
AcDbLine
 10
1.733559
 20
8.782364
 30
0.0
 11
1.635365
 21
9.126114
 31
0.0
  0
LINE
  5
1b0
100
AcDbEntity
  8
text
 62
1
100
AcDbLine
 10
1.733559
 20
8.782364
 30
0.0
 11
1.831809
 21
9.126114
 31
0.0
  0
LINE
  5
1b1
100
AcDbEntity
  8
text
 62
1
100
AcDbLine
 10
1.733559
 20
8.782364
 30
0.0
 11
2.007157
 21
9.013864
 31
0.0
  0
LINE
  5
1b2
100
AcDbEntity
  8
text
 62
1
100
AcDbLine
 10
1.733559
 20
8.782364
 30
0.0
 11
2.091365
 21
8.824461
 31
0.0
  0
LINE
  5
1b3
100
AcDbEntity
  8
text
 62
1
100
AcDbLine
 10
1.733559
 20
8.782364
 30
0.0
 11
2.056268
 21
8.621017
 31
0.0
  0
LINE
  5
1b4
100
AcDbEntity
  8
text
 62
1
100
AcDbLine
 10
1.733559
 20
8.782364
 30
0.0
 11
1.915962
 21
8.466656
 31
0.0
  0
LINE
  5
1b5
100
AcDbEntity
  8
text
 62
1
100
AcDbLine
 10
1.733559
 20
8.782364
 30
0.0
 11
1.579268
 21
8.508767
 31
0.0
  0
LINE
  5
1b6
100
AcDbEntity
  8
text
 62
1
100
AcDbLine
 10
1.733559
 20
8.782364
 30
0.0
 11
1.537171
 21
8.529809
 31
0.0
  0
LINE
  5
1b7
100
AcDbEntity
  8
text
 62
1
100
AcDbLine
 10
1.733559
 20
8.782364
 30
0.0
 11
1.502059
 21
8.564864
 31
0.0
  0
LINE
  5
1b8
100
AcDbEntity
  8
text
 62
1
100
AcDbLine
 10
1.733559
 20
8.782364
 30
0.0
 11
1.474018
 21
8.599961
 31
0.0
  0
LINE
  5
1b9
100
AcDbEntity
  8
text
 62
1
100
AcDbLine
 10
1.733559
 20
8.782364
 30
0.0
 11
1.445962
 21
8.642059
 31
0.0
  0
LINE
  5
1ba
100
AcDbEntity
  8
text
 62
1
100
AcDbLine
 10
1.733559
 20
8.782364
 30
0.0
 11
1.431907
 21
8.684170
 31
0.0
  0
LINE
  5
1bb
100
AcDbEntity
  8
text
 62
1
100
AcDbLine
 10
1.733559
 20
8.782364
 30
0.0
 11
1.417921
 21
8.733267
 31
0.0
  0
LINE
  5
1bc
100
AcDbEntity
  8
text
 62
1
100
AcDbLine
 10
1.733559
 20
8.782364
 30
0.0
 11
1.417921
 21
8.775309
 31
0.0
  0
LINE
  5
1bd
100
AcDbEntity
  8
text
 62
1
100
AcDbLine
 10
1.733559
 20
8.782364
 30
0.0
 11
1.417921
 21
8.817406
 31
0.0
  0
LINE
  5
1be
100
AcDbEntity
  8
text
 62
1
100
AcDbLine
 10
1.733559
 20
8.782364
 30
0.0
 11
1.424921
 21
8.859517
 31
0.0
  0
LINE
  5
1bf
100
AcDbEntity
  8
text
 62
1
100
AcDbLine
 10
1.733559
 20
8.782364
 30
0.0
 11
1.438962
 21
8.908614
 31
0.0
  0
LINE
  5
1c0
100
AcDbEntity
  8
text
 62
1
100
AcDbLine
 10
1.733559
 20
8.782364
 30
0.0
 11
1.460018
 21
8.950711
 31
0.0
  0
LINE
  5
1c1
100
AcDbEntity
  8
text
 62
1
100
AcDbLine
 10
1.733559
 20
8.782364
 30
0.0
 11
1.488059
 21
8.985809
 31
0.0
  0
LINE
  5
1c2
100
AcDbEntity
  8
text
 62
1
100
AcDbLine
 10
1.733559
 20
8.782364
 30
0.0
 11
1.523115
 21
9.020864
 31
0.0
  0
LINE
  5
1c3
100
AcDbEntity
  8
text
 62
1
100
AcDbLine
 10
1.733559
 20
8.782364
 30
0.0
 11
1.558212
 21
9.048906
 31
0.0
  0
LINE
  5
1c4
100
AcDbEntity
  8
text
 62
1
100
AcDbLine
 10
1.733559
 20
8.782364
 30
0.0
 11
1.600309
 21
9.069961
 31
0.0
  0
LINE
  5
1c5
100
AcDbEntity
  8
text
 62
1
100
AcDbLine
 10
1.733559
 20
8.782364
 30
0.0
 11
1.642365
 21
9.091017
 31
0.0
  0
LINE
  5
1c6
100
AcDbEntity
  8
text
 62
1
100
AcDbLine
 10
1.733559
 20
8.782364
 30
0.0
 11
1.691518
 21
9.098017
 31
0.0
  0
LINE
  5
1c7
100
AcDbEntity
  8
text
 62
1
100
AcDbLine
 10
1.733559
 20
8.782364
 30
0.0
 11
1.733559
 21
9.105059
 31
0.0
  0
LINE
  5
1c8
100
AcDbEntity
  8
text
 62
1
100
AcDbLine
 10
1.733559
 20
8.782364
 30
0.0
 11
1.775657
 21
9.098017
 31
0.0
  0
LINE
  5
1c9
100
AcDbEntity
  8
text
 62
1
100
AcDbLine
 10
1.733559
 20
8.782364
 30
0.0
 11
1.824768
 21
9.091017
 31
0.0
  0
LINE
  5
1ca
100
AcDbEntity
  8
text
 62
1
100
AcDbLine
 10
1.733559
 20
8.782364
 30
0.0
 11
1.866865
 21
9.069961
 31
0.0
  0
LINE
  5
1cb
100
AcDbEntity
  8
text
 62
1
100
AcDbLine
 10
1.733559
 20
8.782364
 30
0.0
 11
1.908962
 21
9.048906
 31
0.0
  0
LINE
  5
1cc
100
AcDbEntity
  8
text
 62
1
100
AcDbLine
 10
1.733559
 20
8.782364
 30
0.0
 11
1.944018
 21
9.020864
 31
0.0
  0
LINE
  5
1cd
100
AcDbEntity
  8
text
 62
1
100
AcDbLine
 10
1.733559
 20
8.782364
 30
0.0
 11
1.979115
 21
8.985809
 31
0.0
  0
LINE
  5
1ce
100
AcDbEntity
  8
text
 62
1
100
AcDbLine
 10
1.733559
 20
8.782364
 30
0.0
 11
2.007157
 21
8.950711
 31
0.0
  0
LINE
  5
1cf
100
AcDbEntity
  8
text
 62
1
100
AcDbLine
 10
1.733559
 20
8.782364
 30
0.0
 11
2.028212
 21
8.908614
 31
0.0
  0
LINE
  5
1d0
100
AcDbEntity
  8
text
 62
1
100
AcDbLine
 10
1.733559
 20
8.782364
 30
0.0
 11
2.042268
 21
8.859517
 31
0.0
  0
LINE
  5
1d1
100
AcDbEntity
  8
text
 62
1
100
AcDbLine
 10
1.733559
 20
8.782364
 30
0.0
 11
2.049268
 21
8.817406
 31
0.0
  0
LINE
  5
1d2
100
AcDbEntity
  8
text
 62
1
100
AcDbLine
 10
1.733559
 20
8.782364
 30
0.0
 11
2.049268
 21
8.775309
 31
0.0
  0
LINE
  5
1d3
100
AcDbEntity
  8
text
 62
1
100
AcDbLine
 10
1.733559
 20
8.782364
 30
0.0
 11
2.049268
 21
8.733267
 31
0.0
  0
LINE
  5
1d4
100
AcDbEntity
  8
text
 62
1
100
AcDbLine
 10
1.733559
 20
8.782364
 30
0.0
 11
2.035212
 21
8.684170
 31
0.0
  0
LINE
  5
1d5
100
AcDbEntity
  8
text
 62
1
100
AcDbLine
 10
1.733559
 20
8.782364
 30
0.0
 11
2.021212
 21
8.642059
 31
0.0
  0
LINE
  5
1d6
100
AcDbEntity
  8
text
 62
1
100
AcDbLine
 10
1.733559
 20
8.782364
 30
0.0
 11
1.993171
 21
8.599961
 31
0.0
  0
LINE
  5
1d7
100
AcDbEntity
  8
text
 62
1
100
AcDbLine
 10
1.733559
 20
8.782364
 30
0.0
 11
1.965059
 21
8.564864
 31
0.0
  0
LINE
  5
1d8
100
AcDbEntity
  8
text
 62
1
100
AcDbLine
 10
1.733559
 20
8.782364
 30
0.0
 11
1.930018
 21
8.529809
 31
0.0
  0
LINE
  5
1d9
100
AcDbEntity
  8
text
 62
1
100
AcDbLine
 10
1.733559
 20
8.782364
 30
0.0
 11
1.894907
 21
8.508767
 31
0.0
  0
SPLINE
  5
1da
100
AcDbEntity
  8
text
 62
7
100
AcDbSpline
 70
0
 71
3
 72
19
 73
15
 74
13
 40
0.000000
 40
0.000000
 40
0.000000
 40
0.000000
 40
0.004461
 40
0.009016
 40
0.013919
 40
0.018821
 40
0.023376
 40
0.027838
 40
0.032333
 40
0.036893
 40
0.041795
 40
0.046697
 40
0.051257
 40
0.055753
 40
0.055753
 40
0.055753
 40
0.055753
 10
1.741921
 20
9.636584
 30
0.0
 10
1.741647
 20
9.635081
 30
0.0
 10
1.741095
 20
9.632042
 30
0.0
 10
1.737273
 20
9.628867
 30
0.0
 10
1.732487
 20
9.627721
 30
0.0
 10
1.727639
 20
9.628867
 30
0.0
 10
1.723986
 20
9.632042
 30
0.0
 10
1.722560
 20
9.636595
 30
0.0
 10
1.723979
 20
9.641155
 30
0.0
 10
1.727636
 20
9.644346
 30
0.0
 10
1.732487
 20
9.645488
 30
0.0
 10
1.737276
 20
9.644346
 30
0.0
 10
1.741103
 20
9.641154
 30
0.0
 10
1.741649
 20
9.638100
 30
0.0
 10
1.741921
 20
9.636584
 30
0.0
 11
1.741921
 21
9.636584
 31
0.0
 11
1.740629
 21
9.632314
 31
0.0
 11
1.737240
 21
9.629272
 31
0.0
 11
1.732476
 21
9.628112
 31
0.0
 11
1.727713
 21
9.629272
 31
0.0
 11
1.724323
 21
9.632314
 31
0.0
 11
1.723032
 21
9.636584
 31
0.0
 11
1.724323
 21
9.640890
 31
0.0
 11
1.727713
 21
9.643940
 31
0.0
 11
1.732476
 21
9.645098
 31
0.0
 11
1.737240
 21
9.643940
 31
0.0
 11
1.740629
 21
9.640890
 31
0.0
 11
1.741921
 21
9.636584
 31
0.0
  0
LINE
  5
1db
100
AcDbEntity
  8
text
 62
1
100
AcDbLine
 10
1.691518
 20
8.782364
 30
0.0
 11
1.775657
 21
8.782364
 31
0.0
  0
LINE
  5
1dc
100
AcDbEntity
  8
text
 62
1
100
AcDbLine
 10
1.733559
 20
8.740267
 30
0.0
 11
1.733559
 21
8.824461
 31
0.0
  0
SPLINE
  5
1dd
100
AcDbEntity
  8
text
 62
1
100
AcDbSpline
 70
0
 71
3
 72
19
 73
15
 74
13
 40
0.000000
 40
0.000000
 40
0.000000
 40
0.000000
 40
0.056881
 40
0.108680
 40
0.165561
 40
0.222480
 40
0.274289
 40
0.331171
 40
0.388090
 40
0.439909
 40
0.496829
 40
0.553710
 40
0.605520
 40
0.662438
 40
0.662438
 40
0.662438
 40
0.662438
 10
1.628365
 20
8.782364
 30
0.0
 10
1.630619
 20
8.801691
 30
0.0
 10
1.634925
 20
8.838618
 30
0.0
 10
1.677576
 20
8.880054
 30
0.0
 10
1.733497
 20
8.891485
 30
0.0
 10
1.789861
 20
8.880060
 30
0.0
 10
1.831299
 20
8.838623
 30
0.0
 10
1.842739
 20
8.782352
 30
0.0
 10
1.831304
 20
8.726075
 30
0.0
 10
1.789867
 20
8.684614
 30
0.0
 10
1.733497
 20
8.673187
 30
0.0
 10
1.677570
 20
8.684620
 30
0.0
 10
1.634919
 20
8.726081
 30
0.0
 10
1.630617
 20
8.763024
 30
0.0
 10
1.628365
 20
8.782364
 30
0.0
 11
1.628365
 21
8.782364
 31
0.0
 11
1.641616
 21
8.837680
 31
0.0
 11
1.678244
 21
8.874308
 31
0.0
 11
1.733559
 21
8.887559
 31
0.0
 11
1.788914
 21
8.874308
 31
0.0
 11
1.825556
 21
8.837680
 31
0.0
 11
1.838809
 21
8.782364
 31
0.0
 11
1.825556
 21
8.727009
 31
0.0
 11
1.788914
 21
8.690367
 31
0.0
 11
1.733559
 21
8.677114
 31
0.0
 11
1.678244
 21
8.690367
 31
0.0
 11
1.641616
 21
8.727009
 31
0.0
 11
1.628365
 21
8.782364
 31
0.0
  0
LINE
  5
1de
100
AcDbEntity
  8
text
 62
7
100
AcDbLine
 10
1.741921
 20
8.780198
 30
0.0
 11
1.741921
 21
8.780198
 31
0.0
  0
LINE
  5
1df
100
AcDbEntity
  8
text
 62
1
100
AcDbLine
 10
1.729035
 20
7.934026
 30
0.0
 11
1.553687
 21
7.618318
 31
0.0
  0
LINE
  5
1e0
100
AcDbEntity
  8
text
 62
1
100
AcDbLine
 10
1.729035
 20
7.934026
 30
0.0
 11
1.406340
 21
7.772679
 31
0.0
  0
LINE
  5
1e1
100
AcDbEntity
  8
text
 62
1
100
AcDbLine
 10
1.729035
 20
7.934026
 30
0.0
 11
1.371285
 21
7.976124
 31
0.0
  0
LINE
  5
1e2
100
AcDbEntity
  8
text
 62
1
100
AcDbLine
 10
1.729035
 20
7.934026
 30
0.0
 11
1.455493
 21
8.165526
 31
0.0
  0
LINE
  5
1e3
100
AcDbEntity
  8
text
 62
1
100
AcDbLine
 10
1.729035
 20
7.934026
 30
0.0
 11
1.630840
 21
8.277776
 31
0.0
  0
LINE
  5
1e4
100
AcDbEntity
  8
text
 62
1
100
AcDbLine
 10
1.729035
 20
7.934026
 30
0.0
 11
1.827285
 21
8.277776
 31
0.0
  0
LINE
  5
1e5
100
AcDbEntity
  8
text
 62
1
100
AcDbLine
 10
1.729035
 20
7.934026
 30
0.0
 11
2.002632
 21
8.165526
 31
0.0
  0
LINE
  5
1e6
100
AcDbEntity
  8
text
 62
1
100
AcDbLine
 10
1.729035
 20
7.934026
 30
0.0
 11
2.086840
 21
7.976124
 31
0.0
  0
LINE
  5
1e7
100
AcDbEntity
  8
text
 62
1
100
AcDbLine
 10
1.729035
 20
7.934026
 30
0.0
 11
2.051743
 21
7.772679
 31
0.0
  0
LINE
  5
1e8
100
AcDbEntity
  8
text
 62
1
100
AcDbLine
 10
1.729035
 20
7.934026
 30
0.0
 11
1.911437
 21
7.618318
 31
0.0
  0
LINE
  5
1e9
100
AcDbEntity
  8
text
 62
1
100
AcDbLine
 10
1.729035
 20
7.934026
 30
0.0
 11
1.574743
 21
7.660429
 31
0.0
  0
LINE
  5
1ea
100
AcDbEntity
  8
text
 62
1
100
AcDbLine
 10
1.729035
 20
7.934026
 30
0.0
 11
1.532646
 21
7.681471
 31
0.0
  0
LINE
  5
1eb
100
AcDbEntity
  8
text
 62
1
100
AcDbLine
 10
1.729035
 20
7.934026
 30
0.0
 11
1.497535
 21
7.716526
 31
0.0
  0
LINE
  5
1ec
100
AcDbEntity
  8
text
 62
1
100
AcDbLine
 10
1.729035
 20
7.934026
 30
0.0
 11
1.469493
 21
7.751624
 31
0.0
  0
LINE
  5
1ed
100
AcDbEntity
  8
text
 62
1
100
AcDbLine
 10
1.729035
 20
7.934026
 30
0.0
 11
1.441437
 21
7.793721
 31
0.0
  0
LINE
  5
1ee
100
AcDbEntity
  8
text
 62
1
100
AcDbLine
 10
1.729035
 20
7.934026
 30
0.0
 11
1.427382
 21
7.835832
 31
0.0
  0
LINE
  5
1ef
100
AcDbEntity
  8
text
 62
1
100
AcDbLine
 10
1.729035
 20
7.934026
 30
0.0
 11
1.413396
 21
7.884929
 31
0.0
  0
LINE
  5
1f0
100
AcDbEntity
  8
text
 62
1
100
AcDbLine
 10
1.729035
 20
7.934026
 30
0.0
 11
1.413396
 21
7.926971
 31
0.0
  0
LINE
  5
1f1
100
AcDbEntity
  8
text
 62
1
100
AcDbLine
 10
1.729035
 20
7.934026
 30
0.0
 11
1.413396
 21
7.969068
 31
0.0
  0
LINE
  5
1f2
100
AcDbEntity
  8
text
 62
1
100
AcDbLine
 10
1.729035
 20
7.934026
 30
0.0
 11
1.420396
 21
8.011179
 31
0.0
  0
LINE
  5
1f3
100
AcDbEntity
  8
text
 62
1
100
AcDbLine
 10
1.729035
 20
7.934026
 30
0.0
 11
1.434437
 21
8.060276
 31
0.0
  0
LINE
  5
1f4
100
AcDbEntity
  8
text
 62
1
100
AcDbLine
 10
1.729035
 20
7.934026
 30
0.0
 11
1.455493
 21
8.102374
 31
0.0
  0
LINE
  5
1f5
100
AcDbEntity
  8
text
 62
1
100
AcDbLine
 10
1.729035
 20
7.934026
 30
0.0
 11
1.483535
 21
8.137471
 31
0.0
  0
LINE
  5
1f6
100
AcDbEntity
  8
text
 62
1
100
AcDbLine
 10
1.729035
 20
7.934026
 30
0.0
 11
1.518590
 21
8.172526
 31
0.0
  0
LINE
  5
1f7
100
AcDbEntity
  8
text
 62
1
100
AcDbLine
 10
1.729035
 20
7.934026
 30
0.0
 11
1.553687
 21
8.200568
 31
0.0
  0
LINE
  5
1f8
100
AcDbEntity
  8
text
 62
1
100
AcDbLine
 10
1.729035
 20
7.934026
 30
0.0
 11
1.595785
 21
8.221624
 31
0.0
  0
LINE
  5
1f9
100
AcDbEntity
  8
text
 62
1
100
AcDbLine
 10
1.729035
 20
7.934026
 30
0.0
 11
1.637840
 21
8.242679
 31
0.0
  0
LINE
  5
1fa
100
AcDbEntity
  8
text
 62
1
100
AcDbLine
 10
1.729035
 20
7.934026
 30
0.0
 11
1.686993
 21
8.249679
 31
0.0
  0
LINE
  5
1fb
100
AcDbEntity
  8
text
 62
1
100
AcDbLine
 10
1.729035
 20
7.934026
 30
0.0
 11
1.729035
 21
8.256721
 31
0.0
  0
LINE
  5
1fc
100
AcDbEntity
  8
text
 62
1
100
AcDbLine
 10
1.729035
 20
7.934026
 30
0.0
 11
1.771132
 21
8.249679
 31
0.0
  0
LINE
  5
1fd
100
AcDbEntity
  8
text
 62
1
100
AcDbLine
 10
1.729035
 20
7.934026
 30
0.0
 11
1.820243
 21
8.242679
 31
0.0
  0
LINE
  5
1fe
100
AcDbEntity
  8
text
 62
1
100
AcDbLine
 10
1.729035
 20
7.934026
 30
0.0
 11
1.862340
 21
8.221624
 31
0.0
  0
LINE
  5
1ff
100
AcDbEntity
  8
text
 62
1
100
AcDbLine
 10
1.729035
 20
7.934026
 30
0.0
 11
1.904437
 21
8.200568
 31
0.0
  0
LINE
  5
200
100
AcDbEntity
  8
text
 62
1
100
AcDbLine
 10
1.729035
 20
7.934026
 30
0.0
 11
1.939493
 21
8.172526
 31
0.0
  0
LINE
  5
201
100
AcDbEntity
  8
text
 62
1
100
AcDbLine
 10
1.729035
 20
7.934026
 30
0.0
 11
1.974590
 21
8.137471
 31
0.0
  0
LINE
  5
202
100
AcDbEntity
  8
text
 62
1
100
AcDbLine
 10
1.729035
 20
7.934026
 30
0.0
 11
2.002632
 21
8.102374
 31
0.0
  0
LINE
  5
203
100
AcDbEntity
  8
text
 62
1
100
AcDbLine
 10
1.729035
 20
7.934026
 30
0.0
 11
2.023687
 21
8.060276
 31
0.0
  0
LINE
  5
204
100
AcDbEntity
  8
text
 62
1
100
AcDbLine
 10
1.729035
 20
7.934026
 30
0.0
 11
2.037743
 21
8.011179
 31
0.0
  0
LINE
  5
205
100
AcDbEntity
  8
text
 62
1
100
AcDbLine
 10
1.729035
 20
7.934026
 30
0.0
 11
2.044743
 21
7.969068
 31
0.0
  0
LINE
  5
206
100
AcDbEntity
  8
text
 62
1
100
AcDbLine
 10
1.729035
 20
7.934026
 30
0.0
 11
2.044743
 21
7.926971
 31
0.0
  0
LINE
  5
207
100
AcDbEntity
  8
text
 62
1
100
AcDbLine
 10
1.729035
 20
7.934026
 30
0.0
 11
2.044743
 21
7.884929
 31
0.0
  0
LINE
  5
208
100
AcDbEntity
  8
text
 62
1
100
AcDbLine
 10
1.729035
 20
7.934026
 30
0.0
 11
2.030687
 21
7.835832
 31
0.0
  0
LINE
  5
209
100
AcDbEntity
  8
text
 62
1
100
AcDbLine
 10
1.729035
 20
7.934026
 30
0.0
 11
2.016687
 21
7.793721
 31
0.0
  0
LINE
  5
20a
100
AcDbEntity
  8
text
 62
1
100
AcDbLine
 10
1.729035
 20
7.934026
 30
0.0
 11
1.988646
 21
7.751624
 31
0.0
  0
LINE
  5
20b
100
AcDbEntity
  8
text
 62
1
100
AcDbLine
 10
1.729035
 20
7.934026
 30
0.0
 11
1.960535
 21
7.716526
 31
0.0
  0
LINE
  5
20c
100
AcDbEntity
  8
text
 62
1
100
AcDbLine
 10
1.729035
 20
7.934026
 30
0.0
 11
1.925493
 21
7.681471
 31
0.0
  0
LINE
  5
20d
100
AcDbEntity
  8
text
 62
1
100
AcDbLine
 10
1.729035
 20
7.934026
 30
0.0
 11
1.890382
 21
7.660429
 31
0.0
  0
SPLINE
  5
20e
100
AcDbEntity
  8
text
 62
7
100
AcDbSpline
 70
0
 71
3
 72
19
 73
15
 74
13
 40
0.000000
 40
0.000000
 40
0.000000
 40
0.000000
 40
0.004461
 40
0.009016
 40
0.013919
 40
0.018821
 40
0.023376
 40
0.027838
 40
0.032333
 40
0.036893
 40
0.041795
 40
0.046697
 40
0.051257
 40
0.055753
 40
0.055753
 40
0.055753
 40
0.055753
 10
1.741921
 20
8.780198
 30
0.0
 10
1.741647
 20
8.778694
 30
0.0
 10
1.741095
 20
8.775655
 30
0.0
 10
1.737273
 20
8.772480
 30
0.0
 10
1.732487
 20
8.771334
 30
0.0
 10
1.727639
 20
8.772480
 30
0.0
 10
1.723986
 20
8.775655
 30
0.0
 10
1.722560
 20
8.780208
 30
0.0
 10
1.723979
 20
8.784768
 30
0.0
 10
1.727636
 20
8.787960
 30
0.0
 10
1.732487
 20
8.789101
 30
0.0
 10
1.737276
 20
8.787960
 30
0.0
 10
1.741103
 20
8.784768
 30
0.0
 10
1.741649
 20
8.781714
 30
0.0
 10
1.741921
 20
8.780198
 30
0.0
 11
1.741921
 21
8.780198
 31
0.0
 11
1.740629
 21
8.775927
 31
0.0
 11
1.737240
 21
8.772885
 31
0.0
 11
1.732476
 21
8.771725
 31
0.0
 11
1.727713
 21
8.772885
 31
0.0
 11
1.724323
 21
8.775927
 31
0.0
 11
1.723032
 21
8.780198
 31
0.0
 11
1.724323
 21
8.784504
 31
0.0
 11
1.727713
 21
8.787554
 31
0.0
 11
1.732476
 21
8.788711
 31
0.0
 11
1.737240
 21
8.787554
 31
0.0
 11
1.740629
 21
8.784504
 31
0.0
 11
1.741921
 21
8.780198
 31
0.0
  0
LINE
  5
20f
100
AcDbEntity
  8
text
 62
1
100
AcDbLine
 10
1.686993
 20
7.934026
 30
0.0
 11
1.771132
 21
7.934026
 31
0.0
  0
LINE
  5
210
100
AcDbEntity
  8
text
 62
1
100
AcDbLine
 10
1.729035
 20
7.891929
 30
0.0
 11
1.729035
 21
7.976124
 31
0.0
  0
SPLINE
  5
211
100
AcDbEntity
  8
text
 62
1
100
AcDbSpline
 70
0
 71
3
 72
19
 73
15
 74
13
 40
0.000000
 40
0.000000
 40
0.000000
 40
0.000000
 40
0.056881
 40
0.108680
 40
0.165561
 40
0.222480
 40
0.274289
 40
0.331171
 40
0.388090
 40
0.439909
 40
0.496829
 40
0.553710
 40
0.605520
 40
0.662438
 40
0.662438
 40
0.662438
 40
0.662438
 10
1.623840
 20
7.934026
 30
0.0
 10
1.626094
 20
7.953353
 30
0.0
 10
1.630400
 20
7.990280
 30
0.0
 10
1.673051
 20
8.031717
 30
0.0
 10
1.728972
 20
8.043148
 30
0.0
 10
1.785336
 20
8.031722
 30
0.0
 10
1.826774
 20
7.990286
 30
0.0
 10
1.838214
 20
7.934014
 30
0.0
 10
1.826779
 20
7.877738
 30
0.0
 10
1.785342
 20
7.836276
 30
0.0
 10
1.728972
 20
7.824850
 30
0.0
 10
1.673045
 20
7.836282
 30
0.0
 10
1.630394
 20
7.877743
 30
0.0
 10
1.626092
 20
7.914687
 30
0.0
 10
1.623840
 20
7.934026
 30
0.0
 11
1.623840
 21
7.934026
 31
0.0
 11
1.637091
 21
7.989342
 31
0.0
 11
1.673719
 21
8.025970
 31
0.0
 11
1.729035
 21
8.039221
 31
0.0
 11
1.784389
 21
8.025970
 31
0.0
 11
1.821031
 21
7.989342
 31
0.0
 11
1.834285
 21
7.934026
 31
0.0
 11
1.821031
 21
7.878672
 31
0.0
 11
1.784389
 21
7.842030
 31
0.0
 11
1.729035
 21
7.828776
 31
0.0
 11
1.673719
 21
7.842030
 31
0.0
 11
1.637091
 21
7.878672
 31
0.0
 11
1.623840
 21
7.934026
 31
0.0
  0
LINE
  5
212
100
AcDbEntity
  8
text
 62
7
100
AcDbLine
 10
1.737396
 20
7.931860
 30
0.0
 11
1.737396
 21
7.931860
 31
0.0
  0
SPLINE
  5
213
100
AcDbEntity
  8
text
 62
7
100
AcDbSpline
 70
0
 71
3
 72
19
 73
15
 74
13
 40
0.000000
 40
0.000000
 40
0.000000
 40
0.000000
 40
0.004461
 40
0.009016
 40
0.013919
 40
0.018821
 40
0.023376
 40
0.027838
 40
0.032333
 40
0.036893
 40
0.041795
 40
0.046697
 40
0.051257
 40
0.055753
 40
0.055753
 40
0.055753
 40
0.055753
 10
1.737396
 20
7.931860
 30
0.0
 10
1.737122
 20
7.930356
 30
0.0
 10
1.736570
 20
7.927317
 30
0.0
 10
1.732748
 20
7.924143
 30
0.0
 10
1.727962
 20
7.922996
 30
0.0
 10
1.723114
 20
7.924142
 30
0.0
 10
1.719461
 20
7.927317
 30
0.0
 10
1.718035
 20
7.931870
 30
0.0
 10
1.719454
 20
7.936430
 30
0.0
 10
1.723111
 20
7.939622
 30
0.0
 10
1.727962
 20
7.940763
 30
0.0
 10
1.732751
 20
7.939622
 30
0.0
 10
1.736578
 20
7.936430
 30
0.0
 10
1.737124
 20
7.933376
 30
0.0
 10
1.737396
 20
7.931860
 30
0.0
 11
1.737396
 21
7.931860
 31
0.0
 11
1.736105
 21
7.927589
 31
0.0
 11
1.732715
 21
7.924547
 31
0.0
 11
1.727951
 21
7.923388
 31
0.0
 11
1.723188
 21
7.924547
 31
0.0
 11
1.719798
 21
7.927589
 31
0.0
 11
1.718507
 21
7.931860
 31
0.0
 11
1.719798
 21
7.936166
 31
0.0
 11
1.723188
 21
7.939216
 31
0.0
 11
1.727951
 21
7.940374
 31
0.0
 11
1.732715
 21
7.939216
 31
0.0
 11
1.736105
 21
7.936166
 31
0.0
 11
1.737396
 21
7.931860
 31
0.0
  0
ENDSEC
  0
SECTION
  2
OBJECTS
  0
DICTIONARY
  5
C
330
0
100
AcDbDictionary
  3
ACAD_GROUP
350
D
  3
ACAD_MLINESTYLE
350
17
  0
DICTIONARY
  5
D
330
C
100
AcDbDictionary
  0
DICTIONARY
  5
1A
330
C
100
AcDbDictionary
  0
DICTIONARY
  5
17
330
C
100
AcDbDictionary
  3
STANDARD
350
18
  0
DICTIONARY
  5
19
330
C
100
AcDbDictionary
  0
ENDSEC
  0
EOF
